<?xml version="1.0" encoding="iso-8859-1"?>
<!-- Generator: Adobe Illustrator 19.0.0, SVG Export Plug-In . SVG Version: 6.00 Build 0)  -->
<svg xmlns="http://www.w3.org/2000/svg" xmlns:xlink="http://www.w3.org/1999/xlink" version="1.1" id="Capa_1" x="0px" y="0px" viewBox="0 0 511.999 511.999" style="enable-background:new 0 0 511.999 511.999;" xml:space="preserve" width="512px" height="512px">
<g>
	<g>
		<path d="M476.37,0.135H35.63C15.983,0.135,0,16.119,0,35.765v322.371c0,19.647,15.983,35.63,35.63,35.63h174.023v32.069h-49.333    c-23.718,0-43.014,19.296-43.014,43.014c0,23.718,19.296,43.014,43.014,43.014h190.218c23.718,0,43.014-19.296,43.014-43.014    c0-23.718-19.296-43.014-43.014-43.014h-48.192v-32.069h174.022c19.647,0,35.63-15.983,35.63-35.63V35.765    C512,16.119,496.016,0.135,476.37,0.135z M350.539,455.84c7.173,0,13.009,5.836,13.009,13.009c0,7.173-5.836,13.009-13.009,13.009    H160.321c-7.173,0-13.009-5.836-13.009-13.009c0-7.173,5.836-13.009,13.009-13.009H350.539z M239.658,425.835v-32.069h32.684    v32.069H239.658z M476.37,363.761H35.63c-3.102,0-5.625-2.523-5.625-5.625V35.765c0-3.102,2.522-5.624,5.625-5.624h440.74    c3.102,0,5.625,2.522,5.625,5.624v322.371h0C481.995,361.238,479.472,363.761,476.37,363.761z" fill="#D80027"/>
	</g>
</g>
<g>
	<g>
		<path d="M139.198,99.282l13.583-13.583c5.861-5.858,5.861-15.358,0.002-21.217c-5.858-5.858-15.358-5.858-21.217,0l-13.583,13.583    l-13.204-13.204c-5.859-5.859-15.358-5.859-21.217,0c-5.859,5.858-5.859,15.358,0,21.217l13.204,13.204l-13.204,13.204    c-5.859,5.858-5.859,15.358,0,21.217c2.93,2.93,6.769,4.395,10.608,4.395c3.839,0,7.679-1.465,10.608-4.395l13.204-13.204    l13.583,13.583c2.93,2.93,6.768,4.395,10.608,4.395c3.839,0,7.679-1.465,10.608-4.395c5.859-5.858,5.859-15.358,0-21.217    L139.198,99.282z" fill="#D80027"/>
	</g>
</g>
<g>
	<g>
		<path d="M139.308,194.191l13.473-13.473c5.861-5.86,5.861-15.36,0.002-21.219c-5.858-5.858-15.358-5.858-21.217,0l-13.472,13.473    l-13.314-13.314c-5.859-5.859-15.358-5.859-21.217,0c-5.859,5.858-5.859,15.358,0,21.217l13.314,13.315l-13.314,13.315    c-5.859,5.858-5.859,15.358,0,21.217c2.93,2.93,6.769,4.395,10.608,4.395s7.679-1.465,10.608-4.395l13.314-13.314l13.472,13.473    c2.93,2.93,6.768,4.395,10.608,4.395c3.839,0,7.679-1.465,10.608-4.395c5.859-5.858,5.859-15.358,0-21.217L139.308,194.191z" fill="#D80027"/>
	</g>
</g>
<g>
	<g>
		<path d="M139.237,291.596l13.545-13.545c5.86-5.859,5.86-15.359,0.001-21.217c-5.858-5.859-15.357-5.859-21.217,0l-13.545,13.545    l-13.241-13.242c-5.859-5.859-15.358-5.859-21.217,0c-5.859,5.858-5.859,15.358,0,21.217l13.241,13.241l-13.241,13.241    c-5.859,5.858-5.859,15.358,0,21.217c2.93,2.93,6.768,4.395,10.608,4.395c3.839,0,7.679-1.465,10.608-4.395l13.241-13.24    l13.546,13.546c2.93,2.931,6.768,4.395,10.608,4.395c3.839,0,7.679-1.465,10.608-4.395c5.859-5.858,5.859-15.358,0-21.217    L139.237,291.596z" fill="#D80027"/>
	</g>
</g>
<g>
	<g>
		<path d="M434.307,84.091H223.395c-8.285,0-15.003,6.717-15.003,15.003c0,8.285,6.717,15.003,15.003,15.003h210.913    c8.285,0,15.003-6.717,15.003-15.003C449.31,90.808,442.593,84.091,434.307,84.091z" fill="#D80027"/>
	</g>
</g>
<g>
	<g>
		<path d="M434.307,179.107H223.395c-8.285,0-15.003,6.717-15.003,15.003c0,8.285,6.717,15.003,15.003,15.003h210.913    c8.285,0,15.003-6.717,15.003-15.003C449.31,185.824,442.593,179.107,434.307,179.107z" fill="#D80027"/>
	</g>
</g>
<g>
	<g>
		<path d="M434.307,276.44H223.395c-8.285,0-15.003,6.717-15.003,15.003c0,8.285,6.717,15.003,15.003,15.003h210.913    c8.285,0,15.003-6.717,15.003-15.003C449.31,283.157,442.593,276.44,434.307,276.44z" fill="#D80027"/>
	</g>
</g>
<g>
</g>
<g>
</g>
<g>
</g>
<g>
</g>
<g>
</g>
<g>
</g>
<g>
</g>
<g>
</g>
<g>
</g>
<g>
</g>
<g>
</g>
<g>
</g>
<g>
</g>
<g>
</g>
<g>
</g>
</svg>
